 <svg width="105" height="33" viewBox="0 0 105 33" fill="none" xmlns="http://www.w3.org/2000/svg">
        <path d="M23.0355 0H12.7732C11.3957 0 10.2812 1.13854 10.2812 2.54111V5.45399C10.2812 6.80587 9.80062 8.1134 8.92644 9.13153L0.398036 19.0679C-0.505143 20.1219 0.228172 21.7695 1.59951 21.7695H4.71506C5.52295 21.7695 6.17755 22.437 6.17755 23.2608V27.9882H13.0301V26.7377C13.0301 25.4555 12.0109 24.4162 10.7535 24.4162V23.3559C10.7535 22.4792 11.4516 21.7674 12.3113 21.7674H13.3926C14.2005 21.7674 14.8551 22.4349 14.8551 23.2587V27.986H21.7056V26.7356C21.7056 25.4534 20.6864 24.4141 19.429 24.4141V13.0879C19.429 12.131 20.1913 11.3537 21.1297 11.3537H23.0355C24.4131 11.3537 25.5275 10.2151 25.5275 8.81257V2.54111C25.5275 1.13642 24.411 0 23.0355 0ZM13.3657 3.80428C12.7215 3.80428 12.1974 3.27197 12.1974 2.61293C12.1974 1.95389 12.7194 1.42159 13.3657 1.42159C14.012 1.42159 14.534 1.95389 14.534 2.61293C14.534 3.27197 14.012 3.80428 13.3657 3.80428ZM17.662 3.80428C17.0178 3.80428 16.4937 3.27197 16.4937 2.61293C16.4937 1.95389 17.0157 1.42159 17.662 1.42159C18.3083 1.42159 18.8303 1.95389 18.8303 2.61293C18.8303 3.27197 18.3083 3.80428 17.662 3.80428Z" fill="#0054FF" />
        <path fill-rule="evenodd" clip-rule="evenodd" d="M43.0768 2.3011C40.6336 1.63037 38.1227 3.11585 37.4691 5.6171C36.8145 8.11834 38.2645 10.6905 40.7067 11.3602C43.1488 12.0298 45.6608 10.5454 46.3144 8.04418C46.969 5.54293 45.5189 2.97075 43.0768 2.3011ZM44.1044 7.43794C43.7765 8.6891 42.5211 9.43185 41.2989 9.09648C40.0768 8.76112 39.3523 7.47449 39.6791 6.22333C40.0069 4.97217 41.2624 4.22943 42.4845 4.56479C43.7067 4.90015 44.4312 6.18678 44.1044 7.43794ZM65.3785 2.13986H62.7042L59.2302 6.01695L59.2549 0.122314H57.0643L57.0567 11.5203H59.2366L59.2302 6.7124H59.2592L62.7117 11.5203H65.3129L61.5143 6.40821L65.3796 2.13986H65.3785ZM35.0947 0.122314H32.8289V11.5203H37.3111V9.43292H35.0936V0.122314H35.0947ZM52.9496 2.3011C50.5064 1.63037 47.9955 3.11585 47.3419 5.6171C46.6873 8.11834 48.1374 10.6905 50.5795 11.3613C53.0227 12.032 55.5336 10.5465 56.1882 8.04525C56.8428 5.54401 55.3928 2.97182 52.9507 2.30217L52.9496 2.3011ZM53.9772 7.43794C53.6494 8.6891 52.3939 9.43185 51.1718 9.09648C49.9496 8.76112 49.2251 7.47449 49.5519 6.22333C49.8797 4.97217 51.1352 4.22943 52.3573 4.56479C53.5795 4.90015 54.304 6.18678 53.9772 7.43794Z" fill="#0054FF" />
        <path fill-rule="evenodd" clip-rule="evenodd" d="M69.0075 11.5214L69.0032 2.14093H72.5309C74.4819 2.14093 76.0641 3.70488 76.0641 5.65041C76.0641 7.59594 76.0802 11.5236 76.0802 11.5236L73.8187 11.5214C73.8187 11.5214 73.8047 6.35123 73.8047 5.65041C73.8047 4.94959 73.235 4.3799 72.5309 4.3799C71.8269 4.3799 71.2701 4.37453 71.2701 4.37453V11.5214H69.0075Z" fill="#0054FF" />
        <path d="M66.0247 11.5213V5.09894H68.2905V11.5203L66.0247 11.5224V11.5213Z" fill="#0054FF" />
        <path fill-rule="evenodd" clip-rule="evenodd" d="M91.562 2.13983C91.562 2.13983 91.5663 6.03734 91.5663 7.98825C91.5663 9.93916 89.9851 11.5203 88.0332 11.5203C86.0812 11.5203 84.5 9.93916 84.5 7.98825C84.5 6.03734 84.4893 2.13983 84.4893 2.13983H86.7497C86.7497 2.13983 86.7583 7.28528 86.7583 7.98825C86.7583 8.69122 87.328 9.26198 88.0321 9.26198C88.7361 9.26198 89.3058 8.6923 89.3058 7.98825C89.3058 7.2842 89.2994 2.13983 89.2994 2.13983H91.5598H91.562Z" fill="#0054FF" />
        <path fill-rule="evenodd" clip-rule="evenodd" d="M97.2329 2.13983H95.8173C93.8664 2.13983 92.2842 3.72098 92.2842 5.67189C92.2842 6.61885 92.2788 7.99577 92.2788 9.18674C92.2788 11.4752 94.5328 11.5203 94.5328 11.5203C94.5328 11.5203 94.5436 6.37486 94.5436 5.67189C94.5436 4.96891 95.1133 4.39815 95.8173 4.39815H97.2329V2.13983Z" fill="#0054FF" />
        <path fill-rule="evenodd" clip-rule="evenodd" d="M102.721 9.26202L101.485 9.26632C100.782 9.26632 100.211 8.69664 100.211 7.99366V7.97002C100.717 7.97002 101.367 7.96894 102.076 7.96894C103.691 7.96894 105 6.66189 105 5.0485C105 3.34051 104.991 2.13987 104.991 2.13987C104.991 2.13987 102.821 2.13342 101.485 2.13342C99.5341 2.13342 97.9519 3.71457 97.9519 5.66548V7.99366C97.9519 9.94457 99.5341 11.5203 101.485 11.5203H104.983C104.982 10.2746 103.968 9.25665 102.721 9.26202ZM100.211 5.66548C100.211 4.9625 100.782 4.39282 101.485 4.39282C101.572 4.39282 102.754 4.39604 102.754 4.39604C102.754 4.39604 102.757 4.84857 102.757 5.0227C102.757 5.38493 102.452 5.6773 102.076 5.6773C101.863 5.6773 100.958 5.67837 100.211 5.67837V5.66548Z" fill="#0054FF" />
        <path fill-rule="evenodd" clip-rule="evenodd" d="M79.7229 5.53645H80.7752V5.5386C84.7878 5.5386 84.777 11.5214 80.7494 11.5214H76.8584C76.8584 11.5214 77.1034 9.22866 79.0608 9.22866C79.8487 9.22866 80.6764 9.22974 80.6764 9.22974C81.6341 9.22974 81.6341 7.8023 80.6764 7.8023C80.4334 7.8023 79.6477 7.8023 79.6477 7.8023C75.848 7.8023 75.8362 2.14198 79.6262 2.14198V2.13983H82.8734C82.8734 2.13983 82.9454 4.42825 80.9666 4.42932C80.5194 4.42932 80.0174 4.43147 79.7315 4.43147C78.8179 4.43147 78.8104 5.53 79.7219 5.53645H79.7229Z" fill="#0054FF" />
        <path fill-rule="evenodd" clip-rule="evenodd" d="M67.1502 2.14105C67.7801 2.14105 68.2907 2.65055 68.2907 3.27935C68.2907 3.90815 67.7801 4.41765 67.1502 4.41765C66.5203 4.41765 66.0098 3.90815 66.0098 3.27935C66.0098 2.65055 66.5203 2.14105 67.1502 2.14105Z" fill="#0054FF" />
        <path d="M44.2229 22.8421H40.8239V20.6403C40.8239 20.113 40.6672 19.7282 40.3536 19.4859C40.0401 19.2436 39.6482 19.1225 39.1779 19.1225C38.8359 19.1225 38.5295 19.1724 38.2587 19.2721C37.9879 19.3719 37.7599 19.4717 37.5746 19.5714V22.8421H34.1756V19.2294C34.1756 18.8446 34.254 18.5311 34.4108 18.2888C34.5818 18.0323 34.8241 17.8042 35.1376 17.6047C35.6221 17.2484 36.235 16.9634 36.976 16.7496C37.7314 16.5358 38.5081 16.429 39.3062 16.429C40.0472 16.429 40.7384 16.543 41.3798 16.771C42.0353 16.999 42.5983 17.3482 43.0686 17.8185C43.1968 17.9182 43.3108 18.018 43.4106 18.1178C43.5246 18.2175 43.6172 18.3315 43.6885 18.4598C43.8453 18.7021 43.9735 18.98 44.0733 19.2935C44.173 19.5928 44.2229 19.8992 44.2229 20.2127V22.8421ZM50.8926 22.8421H47.4723V20.6403C47.4723 20.113 47.3226 19.7282 47.0233 19.4859C46.7383 19.2436 46.3535 19.1225 45.869 19.1225C45.5127 19.1225 45.1706 19.1938 44.8429 19.3363C44.5151 19.4788 44.2443 19.6498 44.0305 19.8493L42.2348 17.8612C42.7336 17.4764 43.3108 17.1415 43.9664 16.8565C44.622 16.5715 45.42 16.429 46.3606 16.429C47.1445 16.429 47.8856 16.5644 48.5839 16.8351C49.2822 17.1059 49.838 17.5477 50.2513 18.1605C50.6788 18.7591 50.8926 19.55 50.8926 20.5334V22.8421ZM34.1756 21.7946H37.5746V27.8444C37.4321 27.8872 37.2183 27.9228 36.9333 27.9513C36.6625 27.994 36.3704 28.0154 36.0568 28.0154C35.4013 28.0154 34.9238 27.9085 34.6245 27.6948C34.3253 27.4667 34.1756 27.0463 34.1756 26.4335V21.7946ZM40.8239 21.7946H44.2229V27.8444C44.0662 27.8872 43.8524 27.9228 43.5816 27.9513C43.3108 27.994 43.0187 28.0154 42.7051 28.0154C42.0496 28.0154 41.5721 27.9085 41.2729 27.6948C40.9736 27.4667 40.8239 27.0463 40.8239 26.4335V21.7946ZM47.4723 21.7946H50.8926V27.8444C50.7216 27.8872 50.5007 27.9228 50.2299 27.9513C49.9591 27.994 49.667 28.0154 49.3535 28.0154C48.6979 28.0154 48.2205 27.9085 47.9212 27.6948C47.6219 27.4667 47.4723 27.0463 47.4723 26.4335V21.7946ZM58.5714 25.7067C58.9277 25.7067 59.2768 25.6711 59.6189 25.5998C59.9609 25.5143 60.2103 25.4217 60.3671 25.3219V23.0987L58.4218 23.2697C57.8659 23.3124 57.4384 23.4336 57.1391 23.6331C56.8541 23.8184 56.7116 24.0891 56.7116 24.4454C56.7116 24.816 56.8541 25.1224 57.1391 25.3646C57.4384 25.5927 57.9158 25.7067 58.5714 25.7067ZM58.4431 16.429C60.025 16.429 61.2934 16.7639 62.2483 17.4337C63.2031 18.0893 63.6806 19.1225 63.6806 20.5334V25.7922C63.6806 26.177 63.5808 26.4905 63.3813 26.7328C63.1817 26.9608 62.9323 27.1603 62.6331 27.3314C62.177 27.6164 61.5998 27.8373 60.9015 27.994C60.2174 28.1508 59.4407 28.2292 58.5714 28.2292C57.0037 28.2292 55.7496 27.9228 54.809 27.31C53.8684 26.6972 53.3981 25.7779 53.3981 24.5523C53.3981 23.512 53.7259 22.7139 54.3815 22.1581C55.037 21.588 55.999 21.2388 57.2674 21.1106L60.3457 20.7899V20.512C60.3457 19.9847 60.1391 19.607 59.7258 19.379C59.3267 19.1367 58.7495 19.0156 57.9942 19.0156C57.4241 19.0156 56.8541 19.0869 56.284 19.2294C55.7282 19.3576 55.2152 19.5215 54.7449 19.7211C54.5738 19.5928 54.4242 19.4075 54.2959 19.1652C54.1677 18.9087 54.1035 18.6451 54.1035 18.3743C54.1035 17.7187 54.4456 17.2484 55.1297 16.9634C55.5857 16.7781 56.1059 16.6427 56.6902 16.5572C57.2888 16.4717 57.8731 16.429 58.4431 16.429ZM71.3587 27.4382C70.4323 27.4382 69.5843 27.2672 68.8148 26.9252C68.0452 26.5689 67.4252 25.9917 66.9549 25.1936C66.4846 24.3813 66.2495 23.3124 66.2495 21.987C66.2495 20.7614 66.4846 19.7424 66.9549 18.9301C67.4395 18.1035 68.1236 17.4836 69.0072 17.0703C69.8907 16.6427 70.9026 16.429 72.0427 16.429C72.8836 16.429 73.6531 16.5358 74.3515 16.7496C75.064 16.9634 75.627 17.2057 76.0403 17.4764C76.311 17.6617 76.5319 17.8826 76.703 18.1391C76.8882 18.3957 76.9809 18.7163 76.9809 19.1011V26.348H73.6888V19.4859C73.5178 19.3861 73.3111 19.3006 73.0688 19.2294C72.8266 19.1581 72.5273 19.1225 72.171 19.1225C71.4299 19.1225 70.8171 19.3576 70.3325 19.8279C69.8622 20.284 69.6271 21.0108 69.6271 22.0084C69.6271 23.0773 69.848 23.8184 70.2898 24.2317C70.7316 24.6449 71.2874 24.8516 71.9572 24.8516C72.4703 24.8516 72.8907 24.7661 73.2185 24.5951C73.5605 24.4098 73.8598 24.2032 74.1163 23.9751L74.2232 26.69C73.8812 26.9038 73.4821 27.082 73.0261 27.2245C72.57 27.367 72.0142 27.4382 71.3587 27.4382ZM73.7529 25.5998H76.9809V27.8658C76.9809 28.9204 76.7243 29.7897 76.2113 30.4738C75.7125 31.1579 75.0355 31.6567 74.1804 31.9702C73.3254 32.298 72.3705 32.4619 71.3159 32.4619C70.5036 32.4619 69.7839 32.3906 69.1568 32.2481C68.544 32.1056 68.0808 31.9275 67.7673 31.7137C67.2257 31.3717 66.9549 30.9014 66.9549 30.3028C66.9549 29.975 67.0191 29.6828 67.1473 29.4263C67.2898 29.184 67.4537 28.9988 67.639 28.8705C68.0381 29.0985 68.5226 29.3052 69.0927 29.4905C69.677 29.6757 70.2827 29.7684 70.9097 29.7684C71.7791 29.7684 72.4703 29.6045 72.9833 29.2767C73.4964 28.9631 73.7529 28.4572 73.7529 27.7589V25.5998Z" fill="#66CCFF" />
    </svg>