<svg xmlns="http://www.w3.org/2000/svg" style="display: none;">

  <symbol id="icon-search" viewBox="0 0 24 24">
    <path fill="currentColor"
      d="M0 7.83932C0 12.1692 3.45266 15.6817 7.70229 15.6817C9.20862 15.6817 10.5959 15.2287 11.7636 14.4602L15.8133 18.59C16.1224 18.9049 16.5355 19.0545 16.9672 19.0545C17.8827 19.0545 18.549 18.3471 18.549 17.4245C18.549 16.9941 18.3956 16.586 18.0931 16.278L14.0804 12.1698C14.916 10.9434 15.4046 9.45198 15.4046 7.83932C15.4046 3.51242 11.9519 0 7.70229 0C3.45266 0 0 3.51242 0 7.83932ZM2.20161 7.83932C2.20161 4.75466 4.66679 2.24164 7.69933 2.24164C10.7378 2.24164 13.2001 4.75466 13.2001 7.83932C13.2001 10.927 10.7378 13.4401 7.69933 13.4401C4.66679 13.4401 2.20161 10.927 2.20161 7.83932Z" />
  </symbol>

  <symbol id="icon-facebook" viewBox="0 0 24 24">
    <g stroke="currentColor" stroke-width="1.5" stroke-linecap="round" stroke-linejoin="round"
      fill="none">
      <path
        d="M14 9.3v2.9h2.6c.2 0 .3.2.3.4l-.4 1.9c0 .1-.2.2-.3.2H14V22h-3v-7.2H9.3c-.2 0-.3-.1-.3-.3v-1.9c0-.2.1-.3.3-.3H11V9c0-1.7 1.3-3 3-3h2.7c.2 0 .3.1.3.3v2.4c0 .2-.1.3-.3.3h-2.4c-.2 0-.3.1-.3.3Z" />
      <path d="M15 22H9c-5 0-7-2-7-7V9c0-5 2-7 7-7h6c5 0 7 2 7 7v6c0 5-2 7-7 7Z" />
    </g>
  </symbol>

  <symbol id="icon-whatsapp" viewBox="0 0 24 24">
    <g stroke="currentColor" stroke-width="1.5" stroke-miterlimit="10" stroke-linecap="round"
      fill="none">
      <path stroke-linejoin="round"
        d="M6.9 20.6c1.5.9 3.3 1.4 5.1 1.4 5.5 0 10-4.5 10-10S17.5 2 12 2 2 6.5 2 12c0 1.8.5 3.5 1.3 5l-.86 3.306a1 1 0 0 0 1.243 1.213L6.9 20.6Z" />
      <path
        d="M16.5 14.848c0 .162-.036.329-.113.491a1.856 1.856 0 0 1-.306.459c-.221.243-.464.418-.74.531-.27.113-.563.171-.878.171-.46 0-.951-.108-1.47-.328a7.922 7.922 0 0 1-1.55-.892 12.95 12.95 0 0 1-1.478-1.26 12.79 12.79 0 0 1-1.257-1.471 8.02 8.02 0 0 1-.884-1.534C7.608 10.5 7.5 10.01 7.5 9.543c0-.306.054-.598.162-.868.108-.275.28-.527.519-.752.288-.284.603-.423.937-.423.126 0 .252.027.365.081.117.054.22.135.302.252l1.046 1.472c.08.112.14.216.18.315.04.094.063.189.063.274a.6.6 0 0 1-.095.32 1.53 1.53 0 0 1-.252.319l-.343.356a.24.24 0 0 0-.072.18c0 .035.005.067.014.103.013.036.027.063.036.09.08.149.22.342.419.576.203.234.419.473.653.711.244.239.478.459.717.662.234.197.428.332.581.413l.082.037a.311.311 0 0 0 .112.018.248.248 0 0 0 .185-.077l.342-.338c.113-.112.221-.197.325-.252a.6.6 0 0 1 .32-.094.72.72 0 0 1 .275.059c.099.04.203.098.315.175l1.492 1.058a.683.683 0 0 1 .248.287.921.921 0 0 1 .072.351Z" />
    </g>
  </symbol>

  <symbol id="icon-instagram" viewBox="0 0 24 24">
    <g stroke="currentColor" stroke-width="1.5" stroke-linecap="round" stroke-linejoin="round"
      fill="none">
      <path d="M9 22h6c5 0 7-2 7-7V9c0-5-2-7-7-7H9C4 2 2 4 2 9v6c0 5 2 7 7 7Z" />
      <path d="M12 15.5a3.5 3.5 0 1 0 0-7 3.5 3.5 0 0 0 0 7Z" />
      <path d="M17.636 7h.012" stroke-width="2" />
    </g>
  </symbol>

  <symbol id="icon-linkedin" viewBox="0 0 24 24">
    <path
      d="M15.0002 22.0005H9.00024C4.00024 22.0005 2.00024 20.0005 2.00024 15.0005V9.00049C2.00024 4.00049 4.00024 2.00049 9.00024 2.00049H15.0002C20.0002 2.00049 22.0002 4.00049 22.0002 9.00049V15.0005C22.0002 20.0005 20.0002 22.0005 15.0002 22.0005Z"
      stroke="currentColor" stroke-width="1.5" stroke-linecap="round" stroke-linejoin="round"
      fill="none">
    </path>
    <path
      d="M8.25012 6C7.9186 6 7.60066 6.1317 7.36624 6.36612C7.13182 6.60054 7.00012 6.91848 7.00012 7.25C7.00012 7.58152 7.13182 7.89946 7.36624 8.13388C7.60066 8.3683 7.9186 8.5 8.25012 8.5C8.58164 8.5 8.89959 8.3683 9.13401 8.13388C9.36843 7.89946 9.50012 7.58152 9.50012 7.25C9.50012 6.91848 9.36843 6.60054 9.13401 6.36612C8.89959 6.1317 8.58164 6 8.25012 6ZM7.50012 9.5C7.22362 9.5 7.00012 9.7235 7.00012 10V16.5C7.00012 16.7765 7.22362 17 7.50012 17H9.00012C9.27662 17 9.50012 16.7765 9.50012 16.5V10C9.50012 9.7235 9.27662 9.5 9.00012 9.5H7.50012ZM11.0001 9.5C10.7236 9.5 10.5001 9.7235 10.5001 10V16.5C10.5001 16.7765 10.7236 17 11.0001 17H12.5001C12.7766 17 13.0001 16.7765 13.0001 16.5V12.75C13.0001 12.0605 13.5606 11.5 14.2501 11.5C14.9396 11.5 15.5001 12.0605 15.5001 12.75V16.5C15.5001 16.7765 15.7236 17 16.0001 17H17.5001C17.7766 17 18.0001 16.7765 18.0001 16.5V12.5C18.0001 10.8455 16.6546 9.5 15.0001 9.5C14.2311 9.5 13.5316 9.79301 13.0001 10.2705V10C13.0001 9.7235 12.7766 9.5 12.5001 9.5H11.0001Z"
      fill="currentColor">
    </path>
  </symbol>

  <symbol id="icon-facebook-share" viewBox="0 0 10 20">
    <path
      d="M10 3.125H7.16797C6.97266 3.125 6.80339 3.22266 6.66016 3.41797C6.51693 3.6263 6.44531 3.8737 6.44531 4.16016V6.21094H10V9.16016H6.44531V18.0078H3.04688V9.16016H0V6.21094H3.04688V4.49219C3.04688 3.22917 3.4375 2.16797 4.21875 1.30859C5 0.436197 5.98307 0 7.16797 0H10V3.125Z"
      fill="currentColor" />
  </symbol>

  <symbol id="icon-whatsapp-share" viewBox="0 0 17 20">
    <path
      d="M11.0073 11.0547C11.0985 11.0547 11.4631 11.2174 12.1011 11.543C12.7261 11.8685 13.0581 12.0638 13.0972 12.1289C13.1102 12.168 13.1167 12.2266 13.1167 12.3047C13.1167 12.5521 13.0516 12.832 12.9214 13.1445C12.8042 13.431 12.5438 13.6784 12.1401 13.8867C11.7235 14.082 11.3394 14.1797 10.9878 14.1797C10.5711 14.1797 9.868 13.9453 8.87842 13.4766C8.14925 13.151 7.51774 12.7148 6.98389 12.168C6.43701 11.6211 5.88363 10.931 5.32373 10.0977C4.78988 9.30339 4.52295 8.58073 4.52295 7.92969V7.85156C4.54899 7.17448 4.82894 6.58203 5.36279 6.07422C5.53206 5.91797 5.72087 5.83984 5.9292 5.83984C5.98128 5.83984 6.0529 5.84635 6.14404 5.85938C6.23519 5.8724 6.3068 5.87891 6.35889 5.87891C6.4891 5.87891 6.58675 5.89844 6.65186 5.9375C6.70394 5.98958 6.76253 6.09375 6.82764 6.25C6.87972 6.39323 6.99691 6.71875 7.1792 7.22656C7.37451 7.73438 7.47217 8.01432 7.47217 8.06641C7.47217 8.22266 7.34196 8.4375 7.08154 8.71094C6.82113 8.98438 6.69092 9.16016 6.69092 9.23828C6.69092 9.29036 6.71045 9.34245 6.74951 9.39453C7.00993 9.94141 7.38753 10.4492 7.88232 10.918C8.29899 11.3216 8.8654 11.6992 9.58154 12.0508C9.67269 12.1029 9.75081 12.1289 9.81592 12.1289C9.93311 12.1289 10.1349 11.9466 10.4214 11.582C10.7078 11.2305 10.9032 11.0547 11.0073 11.0547ZM8.7417 16.9727C9.6792 16.9727 10.5841 16.7839 11.4565 16.4062C12.3289 16.0286 13.0776 15.5273 13.7026 14.9023C14.3276 14.2773 14.8224 13.5352 15.187 12.6758C15.5646 11.8034 15.7534 10.8984 15.7534 9.96094C15.7534 9.01042 15.5646 8.10547 15.187 7.24609C14.8224 6.3737 14.3276 5.625 13.7026 5C13.0776 4.375 12.3289 3.8737 11.4565 3.49609C10.5841 3.13151 9.6792 2.94922 8.7417 2.94922C7.79118 2.94922 6.88623 3.13151 6.02686 3.49609C5.15446 3.8737 4.40576 4.375 3.78076 5C3.15576 5.625 2.66097 6.3737 2.29639 7.24609C1.91878 8.10547 1.72998 9.01042 1.72998 9.96094C1.72998 11.4714 2.1792 12.8385 3.07764 14.0625L2.1792 16.6602L4.89404 15.8008C6.06592 16.582 7.34847 16.9727 8.7417 16.9727ZM8.7417 1.54297C9.87451 1.54297 10.9618 1.76432 12.0034 2.20703C13.0451 2.64974 13.937 3.2487 14.6792 4.00391C15.4344 4.75911 16.0334 5.65755 16.4761 6.69922C16.9318 7.72786 17.1597 8.8151 17.1597 9.96094C17.1597 11.0938 16.9318 12.181 16.4761 13.2227C16.0334 14.2643 15.4344 15.1562 14.6792 15.8984C13.937 16.6536 13.0451 17.2526 12.0034 17.6953C10.9618 18.151 9.87451 18.3789 8.7417 18.3789C7.28337 18.3789 5.92269 18.0273 4.65967 17.3242L0.0112305 18.8086L1.53467 14.2969C0.727376 12.9688 0.32373 11.5234 0.32373 9.96094C0.32373 8.8151 0.545085 7.72786 0.987793 6.69922C1.44352 5.65755 2.04248 4.75911 2.78467 4.00391C3.53988 3.2487 4.43831 2.64974 5.47998 2.20703C6.50863 1.76432 7.59587 1.54297 8.7417 1.54297Z"
      fill="currentColor" />
  </symbol>

  <symbol id="icon-instagram-share" viewBox="0 0 17 20">
    <path
      d="M11.4258 8.57422C11.4258 7.79297 11.1458 7.1224 10.5859 6.5625C10.026 6.0026 9.35547 5.72266 8.57422 5.72266C7.77995 5.72266 7.10612 6.0026 6.55273 6.5625C5.99935 7.1224 5.72266 7.79297 5.72266 8.57422C5.72266 9.36849 5.99935 10.0423 6.55273 10.5957C7.10612 11.1491 7.77995 11.4258 8.57422 11.4258C9.35547 11.4258 10.026 11.1491 10.5859 10.5957C11.1458 10.0423 11.4258 9.36849 11.4258 8.57422ZM12.9688 8.57422C12.9688 9.1862 12.8516 9.75911 12.6172 10.293C12.3958 10.8268 12.0866 11.2923 11.6895 11.6895C11.2923 12.0866 10.8268 12.4023 10.293 12.6367C9.75911 12.8581 9.1862 12.9688 8.57422 12.9688C7.96224 12.9688 7.38932 12.8581 6.85547 12.6367C6.32161 12.4023 5.85612 12.0866 5.45898 11.6895C5.06185 11.2923 4.74609 10.8268 4.51172 10.293C4.29036 9.75911 4.17969 9.1862 4.17969 8.57422C4.17969 7.96224 4.29036 7.38932 4.51172 6.85547C4.74609 6.32161 5.06185 5.85612 5.45898 5.45898C5.85612 5.06185 6.32161 4.7526 6.85547 4.53125C7.38932 4.29688 7.96224 4.17969 8.57422 4.17969C9.1862 4.17969 9.75911 4.29688 10.293 4.53125C10.8268 4.7526 11.2923 5.06185 11.6895 5.45898C12.0866 5.85612 12.3958 6.32161 12.6172 6.85547C12.8516 7.38932 12.9688 7.96224 12.9688 8.57422ZM14.1797 4.00391C14.1797 4.29036 14.0788 4.53125 13.877 4.72656C13.6751 4.92188 13.431 5.01953 13.1445 5.01953C12.8581 5.01953 12.6172 4.92188 12.4219 4.72656C12.2266 4.53125 12.1289 4.29036 12.1289 4.00391C12.1289 3.71745 12.2266 3.47331 12.4219 3.27148C12.6172 3.06966 12.8581 2.96875 13.1445 2.96875C13.431 2.96875 13.6751 3.06966 13.877 3.27148C14.0788 3.47331 14.1797 3.71745 14.1797 4.00391ZM8.57422 1.54297C8.26172 1.54297 7.8776 1.54297 7.42188 1.54297C6.95312 1.52995 6.47786 1.5332 5.99609 1.55273C5.51432 1.57227 5.05208 1.60156 4.60938 1.64062C4.16667 1.69271 3.80208 1.77734 3.51562 1.89453C3.32031 1.97266 3.14453 2.06055 2.98828 2.1582C2.83203 2.25586 2.68229 2.38281 2.53906 2.53906C2.38281 2.69531 2.25586 2.84831 2.1582 2.99805C2.06055 3.14779 1.97266 3.32031 1.89453 3.51562C1.77734 3.80208 1.69271 4.16667 1.64062 4.60938C1.58854 5.05208 1.55599 5.51432 1.54297 5.99609C1.52995 6.47786 1.52344 6.95312 1.52344 7.42188C1.53646 7.8776 1.54297 8.26172 1.54297 8.57422C1.54297 8.88672 1.53646 9.27083 1.52344 9.72656C1.52344 10.1953 1.52995 10.6706 1.54297 11.1523C1.55599 11.6341 1.58854 12.0964 1.64062 12.5391C1.69271 12.9818 1.77734 13.3464 1.89453 13.6328C1.97266 13.8281 2.06055 14.0039 2.1582 14.1602C2.25586 14.3164 2.38281 14.4661 2.53906 14.6094C2.68229 14.7656 2.83203 14.8926 2.98828 14.9902C3.14453 15.0879 3.32031 15.1758 3.51562 15.2539C3.80208 15.3711 4.16667 15.4557 4.60938 15.5078C5.05208 15.5599 5.51432 15.5924 5.99609 15.6055C6.47786 15.6185 6.95312 15.625 7.42188 15.625C7.8776 15.612 8.26172 15.6055 8.57422 15.6055C8.88672 15.6055 9.27083 15.612 9.72656 15.625C10.1953 15.625 10.6706 15.6185 11.1523 15.6055C11.6341 15.5924 12.0964 15.5599 12.5391 15.5078C12.9818 15.4557 13.3464 15.3711 13.6328 15.2539C13.8281 15.1758 14.0007 15.0879 14.1504 14.9902C14.3001 14.8926 14.4531 14.7656 14.6094 14.6094C14.7656 14.4661 14.8926 14.3164 14.9902 14.1602C15.0879 14.0039 15.1758 13.8281 15.2539 13.6328C15.3711 13.3464 15.4557 12.9818 15.5078 12.5391C15.5469 12.0964 15.5762 11.6341 15.5957 11.1523C15.6152 10.6706 15.6185 10.1953 15.6055 9.72656C15.6055 9.27083 15.6055 8.88672 15.6055 8.57422C15.6055 8.26172 15.6055 7.8776 15.6055 7.42188C15.6185 6.95312 15.6152 6.47786 15.5957 5.99609C15.5762 5.51432 15.5469 5.05208 15.5078 4.60938C15.4557 4.16667 15.3711 3.80208 15.2539 3.51562C15.1758 3.32031 15.0879 3.14779 14.9902 2.99805C14.8926 2.84831 14.7656 2.69531 14.6094 2.53906C14.4531 2.38281 14.3001 2.25586 14.1504 2.1582C14.0007 2.06055 13.8281 1.97266 13.6328 1.89453C13.3464 1.77734 12.9818 1.69271 12.5391 1.64062C12.0964 1.60156 11.6341 1.57227 11.1523 1.55273C10.6706 1.5332 10.1953 1.52995 9.72656 1.54297C9.27083 1.54297 8.88672 1.54297 8.57422 1.54297ZM17.1484 8.57422C17.1484 9.17318 17.1452 9.76562 17.1387 10.3516C17.1322 10.9375 17.1159 11.5234 17.0898 12.1094C17.0508 12.7995 16.9368 13.4473 16.748 14.0527C16.5592 14.6582 16.2109 15.2083 15.7031 15.7031C15.1953 16.2109 14.6419 16.5625 14.043 16.7578C13.444 16.9531 12.7995 17.0638 12.1094 17.0898C11.5234 17.1289 10.9342 17.1484 10.3418 17.1484C9.74935 17.1484 9.16016 17.1484 8.57422 17.1484C7.97526 17.1484 7.38281 17.1484 6.79688 17.1484C6.21094 17.1484 5.625 17.1289 5.03906 17.0898C4.34896 17.0638 3.70117 16.9531 3.0957 16.7578C2.49023 16.5625 1.9401 16.2109 1.44531 15.7031C0.9375 15.2083 0.585938 14.6582 0.390625 14.0527C0.195312 13.4473 0.0846354 12.7995 0.0585938 12.1094C0.0195312 11.5234 0 10.9375 0 10.3516C0 9.76562 0 9.17318 0 8.57422C0 7.98828 0 7.39909 0 6.80664C0 6.21419 0.0195312 5.625 0.0585938 5.03906C0.0846354 4.34896 0.195312 3.70443 0.390625 3.10547C0.585938 2.50651 0.9375 1.95312 1.44531 1.44531C1.9401 0.9375 2.49023 0.589193 3.0957 0.400391C3.70117 0.211588 4.34896 0.0976562 5.03906 0.0585938C5.625 0.0325527 6.21094 0.0162754 6.79688 0.00976562C7.38281 0.00325584 7.97526 0 8.57422 0C9.16016 0 9.74935 0.00325584 10.3418 0.00976562C10.9342 0.0162754 11.5234 0.0325527 12.1094 0.0585938C12.7995 0.0976562 13.444 0.211588 14.043 0.400391C14.6419 0.589193 15.1953 0.9375 15.7031 1.44531C16.2109 1.95312 16.5592 2.50651 16.748 3.10547C16.9368 3.70443 17.0508 4.34896 17.0898 5.03906C17.1159 5.625 17.1322 6.21419 17.1387 6.80664C17.1452 7.39909 17.1484 7.98828 17.1484 8.57422Z"
      fill="currentColor" />
  </symbol>

  <symbol id="icon-x-share" viewBox="0 0 24 24">
    <path
      d="M18.901 2H22.58L14.54 11.19L24 22H16.594L10.794 15.412L5.028 22H1.347L9.946 12.172L0.875 2H8.47L13.713 7.979L18.901 2ZM17.61 19.798H19.648L7.363 4.086H5.178L17.61 19.798Z"
      fill="currentColor" />
  </symbol>

  <symbol id="icon-linkedin-share" viewBox="0 0 24 24">
    <rect x="2.5" y="2.5" width="19" height="19" rx="4" fill="none" stroke="currentColor" stroke-width="1.8" />
    <circle cx="7.4" cy="8.6" r="1.2" fill="currentColor" />
    <path d="M6.3 11h2.2v6.8H6.3z" fill="currentColor" />
    <path
      d="M11 11h2.1v1c.5-.8 1.4-1.2 2.5-1.2 2 0 3.2 1.3 3.2 3.9v4h-2.2v-3.5c0-1.5-.6-2.3-1.7-2.3-1.2 0-1.9.9-1.9 2.3v3.5H11V11Z"
      fill="currentColor" />
  </symbol>

  <symbol id="icon-telegram-share" viewBox="0 0 24 24">
    <path
      d="M21.2 4.2L3.8 10.9c-1.2.5-1.2 1.2-.2 1.5l4.5 1.4 1.7 5.4c.2.6.1.8.8.8.5 0 .8-.2 1-.5l2.2-2.2 4.5 3.3c.8.4 1.4.2 1.6-.8l2.9-13.6c.3-1.2-.4-1.8-1.2-1.5ZM9 13.4l9.8-6.2c.5-.3 1-.1.6.3l-8.1 7.3-.3 3.1L9 13.4Z"
      fill="currentColor" />
  </symbol>


  <symbol xmlns="http://www.w3.org/2000/svg" viewBox="0 0 1440 700"
    fill="none">
    <g opacity="0.5" filter="url(#filter0_f_2322_11157)">
      <path
        d="M1054.49 738.755C1296.11 727.851 1510.08 518.797 1635.68 484.085C1606.01 370.396 1488.71 141.831 1256.93 137.092C967.194 131.168 885.26 355.038 784.89 432.206C684.52 509.374 737.45 473.261 683.722 502.833C635.145 529.57 599.591 515.093 494.431 553.019C341.254 608.263 460.915 460.066 -25.0611 388.617C-511.038 317.168 -851.639 611.241 -891.946 622.533C-932.253 633.825 -921.902 902.453 -756.629 978.529C-591.356 1054.6 -444.916 912.206 -267.849 821.694C-90.7815 731.182 -137.686 746.067 192.467 735.11C522.62 724.152 621.233 804.612 698.636 776.215C814.139 733.841 941.274 743.865 1054.49 738.755Z"
        fill="url(#paint0_linear_2322_11157)" />
    </g>
    <defs>
      <filter id="filter0_f_2322_11157" x="-1051.73" y="-3.02312" width="2827.41" height="1143.14"
        filterUnits="userSpaceOnUse" color-interpolation-filters="sRGB">
        <feFlood flood-opacity="0" result="BackgroundImageFix" />
        <feBlend mode="normal" in="SourceGraphic" in2="BackgroundImageFix" result="shape" />
        <feGaussianBlur stdDeviation="70" result="effect1_foregroundBlur_2322_11157" />
      </filter>
      <linearGradient id="paint0_linear_2322_11157" x1="151.92" y1="329.791" x2="291.647"
        y2="944.622" gradientUnits="userSpaceOnUse">
        <stop stop-color="#9AC2FF" />
        <stop offset="0.5" stop-color="#5A97FF" />
        <stop offset="1" stop-color="#347FE0" stop-opacity="0.6" />
      </linearGradient>
    </defs>
  </symbol>

  <symbol id="hamburger-menu" viewBox="0 0 24 24">
    <path
      d="M2.96777 17.2104H21.0287C21.5699 17.2104 22 16.6331 22 15.9501C22 15.2638 21.573 14.7104 21.0287 14.7104H2.96777C2.42656 14.7104 2 15.2715 2 15.9501C2 16.6216 2.42963 17.2104 2.96777 17.2104Z"
      fill="currentColor"></path>
    <path
      d="M2.96777 9.28962H21.0287C21.5699 9.28962 22 8.72182 22 8.04379C22 7.35408 21.573 6.78962 21.0287 6.78962H2.96777C2.42656 6.78962 2 7.36187 2 8.04379C2 8.71014 2.42963 9.28962 2.96777 9.28962Z"
      fill="currentColor"></path>
  </symbol>


</svg>
